HIERARCHY
ROOT Hips
{
	OFFSET -0.001795 -0.223333 0.028219
	CHANNELS 6 Xposition Yposition Zposition Zrotation Yrotation Xrotation 
	JOINT LeftUpLeg
	{
		OFFSET 0.069520 -0.091406 -0.006815
		CHANNELS 3 Zrotation Yrotation Xrotation
		JOINT LeftLeg
		{
			OFFSET 0.034277 -0.375199 -0.004496
			CHANNELS 3 Zrotation Yrotation Xrotation
			JOINT LeftFoot
			{
				OFFSET -0.013596 -0.397961 -0.043693
				CHANNELS 3 Zrotation Yrotation Xrotation
				JOINT LeftToe
				{
					OFFSET 0.026358 -0.055791 0.119288
					CHANNELS 3 Zrotation Yrotation Xrotation
					End Site
					{
						OFFSET 0.000000 0.000000 0.000000
					}
				}
			}
		}
	}
	JOINT RightUpLeg
	{
		OFFSET -0.067670 -0.090522 -0.004320
		CHANNELS 3 Zrotation Yrotation Xrotation
		JOINT RightLeg
		{
			OFFSET -0.038290 -0.382569 -0.008850
			CHANNELS 3 Zrotation Yrotation Xrotation
			JOINT RightFoot
			{
				OFFSET 0.015774 -0.398415 -0.042312
				CHANNELS 3 Zrotation Yrotation Xrotation
				JOINT RightToe
				{
					OFFSET -0.025372 -0.048144 0.123348
					CHANNELS 3 Zrotation Yrotation Xrotation
					End Site
					{
						OFFSET 0.000000 0.000000 0.000000
					}
				}
			}
		}
	}
	JOINT Spine
	{
		OFFSET -0.002533 0.108963 -0.026696
		CHANNELS 3 Zrotation Yrotation Xrotation
		JOINT Spine1
		{
			OFFSET 0.005487 0.135180 0.001092
			CHANNELS 3 Zrotation Yrotation Xrotation
			JOINT Spine2
			{
				OFFSET 0.001457 0.052922 0.025425
				CHANNELS 3 Zrotation Yrotation Xrotation
				JOINT Neck
				{
					OFFSET -0.002778 0.213870 -0.042857
					CHANNELS 3 Zrotation Yrotation Xrotation
					JOINT Head
					{
						OFFSET 0.005152 0.064970 0.051349
						CHANNELS 3 Zrotation Yrotation Xrotation
						End Site
						{
							OFFSET 0.000000 0.000000 0.000000
						}
					}
				}
				JOINT LeftShoulder
				{
					OFFSET 0.078845 0.121749 -0.034090
					CHANNELS 3 Zrotation Yrotation Xrotation
					JOINT LeftArm
					{
						OFFSET 0.090977 0.030469 -0.008868
						CHANNELS 3 Zrotation Yrotation Xrotation
						JOINT LeftForeArm
						{
							OFFSET 0.259612 -0.012772 -0.027456
							CHANNELS 3 Zrotation Yrotation Xrotation
							JOINT LeftHand
							{
								OFFSET 0.249234 0.008986 -0.001171
								CHANNELS 3 Zrotation Yrotation Xrotation
								End Site
								{
									OFFSET 0.000000 0.000000 0.000000
								}
							}
						}
					}
				}
				JOINT RightShoulder
				{
					OFFSET -0.081759 0.118833 -0.038615
					CHANNELS 3 Zrotation Yrotation Xrotation
					JOINT RightArm
					{
						OFFSET -0.096012 0.032551 -0.009143
						CHANNELS 3 Zrotation Yrotation Xrotation
						JOINT RightForeArm
						{
							OFFSET -0.253742 -0.013329 -0.021401
							CHANNELS 3 Zrotation Yrotation Xrotation
							JOINT RightHand
							{
								OFFSET -0.255298 0.007772 -0.005559
								CHANNELS 3 Zrotation Yrotation Xrotation
								End Site
								{
									OFFSET 0.000000 0.000000 0.000000
								}
							}
						}
					}
				}
			}
		}
	}
}
MOTION
Frames: 16
Frame Time: 0.050000
0.000000 0.926062 0.000000 -1.085068 -11.218613 -2.173052 8.390266 0.178830 -18.830899 -9.283149 6.804843 48.082196 8.976536 18.216421 8.739815 0.000000 0.000000 0.000000 4.373601 1.596351 -11.986889 4.118217 0.244904 19.399929 -6.447298 -16.129125 2.650610 0.000000 0.000000 0.000000 4.174634 -1.078383 17.906463 -6.870957 2.081637 -23.818926 -1.010594 7.730317 26.473078 7.457666 -4.545975 -13.290063 0.000000 0.000000 0.000000 -20.852586 -8.507831 3.452321 -42.959499 -11.959649 -3.211156 -0.957656 -36.111035 2.086706 0.000000 0.000000 0.000000 28.155306 -2.017717 -2.798555 50.284853 6.177934 -4.893324 9.746850 24.714431 3.130134 0.000000 0.000000 0.000000 
-0.008990 0.928090 0.043714 -1.066441 -12.531952 -1.894075 8.002693 0.259623 -22.277805 -10.542203 6.511871 40.511357 10.999431 21.329253 8.908923 0.000000 0.000000 0.000000 4.615836 0.847757 -7.163576 3.411098 0.269314 15.740209 -5.878622 -14.097903 0.374933 0.000000 0.000000 0.000000 3.424933 -0.908429 17.251832 -6.647651 1.984951 -24.214249 0.022381 9.118327 26.256834 5.945727 -3.488178 -11.638323 0.000000 0.000000 0.000000 -21.766156 -7.704522 2.832586 -42.539909 -10.423941 -3.628294 -1.909812 -36.500498 2.383773 0.000000 0.000000 0.000000 26.551590 -3.164366 -3.217821 51.666300 4.418390 -5.677392 10.932085 25.935687 3.605470 0.000000 0.000000 0.000000 
-0.018431 0.928161 0.087609 -0.900086 -12.914932 -2.620631 7.088405 0.083181 -22.397609 -11.118823 4.570115 26.636548 11.483619 21.833894 10.203683 0.000000 0.000000 0.000000 4.103506 0.156881 -2.274813 3.706592 0.115242 13.764128 -5.696713 -13.052548 -1.070634 0.000000 0.000000 0.000000 4.004504 -0.990327 17.741147 -7.674494 2.221296 -25.635637 -0.611667 10.307194 26.831027 5.547165 -3.197730 -10.499381 0.000000 0.000000 0.000000 -21.549159 -7.160443 2.251731 -41.592012 -10.706980 -3.462731 -2.873521 -35.458967 2.514321 0.000000 0.000000 0.000000 25.949662 -4.067561 -3.333660 52.885201 4.068343 -6.110460 10.073854 25.469160 3.439109 0.000000 0.000000 0.000000 
-0.028822 0.929313 0.131993 -0.634680 -14.510244 -2.903778 5.726586 -0.149264 -21.505459 -10.594856 2.853983 13.753893 10.560269 19.407594 19.302739 0.000000 0.000000 0.000000 3.642248 -0.317742 1.655579 3.307652 0.167409 12.522862 -4.980650 -11.068611 -1.357248 0.000000 0.000000 0.000000 3.570844 -0.861652 17.130984 -8.053410 2.294514 -25.360570 -1.430542 12.208918 27.050723 5.377914 -3.298302 -7.960368 0.000000 0.000000 0.000000 -20.018234 -5.849079 1.345105 -41.224274 -11.073458 -3.319065 -5.198886 -34.919892 3.120724 0.000000 0.000000 0.000000 27.162181 -4.577314 -3.472860 51.428543 4.368263 -6.001400 11.807111 25.359694 3.827850 0.000000 0.000000 0.000000 
-0.040824 0.929443 0.176330 -0.888688 -15.507050 -2.580367 3.984249 -0.494068 -20.856244 -8.394237 1.741242 7.504347 9.768079 17.912021 24.396334 0.000000 0.000000 0.000000 3.830281 -0.745933 5.522978 2.805501 0.178562 10.770514 -4.293282 -9.322456 -1.363862 0.000000 0.000000 0.000000 3.012266 -0.739778 16.088553 -8.289461 2.359023 -24.490636 -1.476929 13.075526 26.501203 5.606272 -3.672193 -6.534979 0.000000 0.000000 0.000000 -20.374679 -4.405763 0.432137 -40.434262 -11.530632 -3.060309 -3.912130 -33.457975 2.563537 0.000000 0.000000 0.000000 26.072503 -4.775962 -3.454642 52.285973 3.858228 -6.209043 12.448254 25.322629 3.965472 0.000000 0.000000 0.000000 
-0.054058 0.929908 0.219912 -1.469215 -17.999553 -2.311540 3.503316 -0.487365 -18.555463 -6.258515 1.192480 5.147217 10.446888 18.379831 24.719902 0.000000 0.000000 0.000000 3.697466 -0.905001 7.540837 3.258042 0.191860 11.527862 -3.500215 -8.573525 1.007214 0.000000 0.000000 0.000000 1.846907 -0.521269 14.543301 -7.976144 2.238597 -23.757281 -1.045954 15.241658 25.915589 5.772375 -3.975271 -4.858049 0.000000 0.000000 0.000000 -19.731465 -3.386270 -0.276251 -39.891031 -11.683644 -2.862043 -3.212969 -31.913246 2.177477 0.000000 0.000000 0.000000 25.398015 -5.957025 -3.996379 52.996961 4.027465 -6.112801 13.037652 23.752369 3.824377 0.000000 0.000000 0.000000 
-0.067780 0.931003 0.261456 -2.431450 -19.761111 -2.560953 3.550637 -0.402813 -14.857928 -4.403574 0.832540 4.917382 12.102984 20.491292 22.880253 0.000000 0.000000 0.000000 3.519806 -0.987497 9.141936 4.551574 0.127709 13.575800 -2.607817 -8.995206 5.688195 0.000000 0.000000 0.000000 0.789949 -0.362506 13.860558 -8.669290 2.408400 -23.315569 -0.835408 16.159784 26.174511 6.171520 -4.150919 -5.788498 0.000000 0.000000 0.000000 -18.249454 -4.343449 0.436982 -40.232480 -12.234468 -2.788871 1.176489 -28.037180 0.837454 0.000000 0.000000 0.000000 25.483234 -5.558561 -3.790133 54.108921 4.968471 -5.826011 12.569782 23.559054 3.706259 0.000000 0.000000 0.000000 
-0.080269 0.929732 0.299140 -3.468266 -20.113744 -3.264498 4.132796 -0.264136 -12.250863 -3.725788 0.784597 7.177548 12.646891 21.918006 18.466227 0.000000 0.000000 0.000000 2.776449 -0.814087 8.015739 7.952575 -0.112317 21.372234 -2.388039 -10.810259 11.114088 0.000000 0.000000 0.000000 -1.094784 -0.110942 14.674773 -8.763760 2.443647 -23.014882 -1.338315 14.143894 26.718044 5.540601 -3.775823 -6.185389 0.000000 0.000000 0.000000 -18.626834 -3.556907 0.530625 -37.711645 -13.149032 -2.589204 2.736684 -25.427593 0.489325 0.000000 0.000000 0.000000 25.006616 -4.748338 -3.891041 54.955212 6.048278 -5.298802 12.976437 22.890594 3.572663 0.000000 0.000000 0.000000 
-0.088950 0.929008 0.329345 -4.362863 -20.942563 -2.979502 5.291304 -0.050192 -11.266949 -4.276382 1.059063 9.487857 13.181532 23.231149 15.569715 0.000000 0.000000 0.000000 -0.182553 -0.214656 3.310615 14.588676 -1.367358 30.625831 -1.981081 -13.294089 22.101659 0.000000 0.000000 0.000000 -2.486159 0.126787 15.653070 -8.862076 2.435385 -22.888691 -1.597145 12.754786 26.166278 4.650039 -2.974286 -7.777895 0.000000 0.000000 0.000000 -18.649709 -4.825452 1.646015 -36.085711 -13.362097 -2.568202 3.451316 -22.742910 0.325946 0.000000 0.000000 0.000000 25.472852 -3.345848 -3.666583 54.905092 5.550622 -5.346360 11.925188 24.119868 3.479731 0.000000 0.000000 0.000000 
-0.093186 0.931635 0.351623 -5.538654 -21.741954 -2.199661 6.446201 0.144437 -9.821505 -4.564942 1.137655 9.187836 13.533226 24.012286 14.517755 0.000000 0.000000 0.000000 -1.887065 0.276576 -2.272143 17.886409 -2.152444 35.458093 -2.935806 -16.541011 35.445694 0.000000 0.000000 0.000000 -2.208515 0.141353 16.553522 -8.954972 2.472313 -22.127899 -1.947117 11.317985 25.439445 2.971551 -1.782996 -7.609606 0.000000 0.000000 0.000000 -18.520437 -5.136601 2.230850 -35.903482 -13.179060 -2.665214 3.390562 -22.415080 0.379285 0.000000 0.000000 0.000000 24.252063 -2.018151 -3.303212 55.462102 5.578757 -5.158673 10.317022 24.787820 3.149067 0.000000 0.000000 0.000000 
-0.094899 0.936765 0.368874 -5.960028 -22.546469 -1.427981 6.791115 0.204761 -8.960092 -4.889047 1.213563 8.713256 13.887610 24.373294 15.254187 0.000000 0.000000 0.000000 -3.065451 0.543122 -5.188358 16.802749 -1.684177 33.460195 -8.471900 -22.525075 29.559386 0.000000 0.000000 0.000000 -2.003955 0.113920 16.130311 -9.041495 2.495772 -21.608677 -1.870231 11.033810 25.599396 2.593272 -1.414382 -9.286632 0.000000 0.000000 0.000000 -17.901642 -5.561115 2.654253 -37.339899 -13.160288 -2.767410 3.877578 -22.711813 0.335979 0.000000 0.000000 0.000000 23.894806 -1.345867 -3.105097 56.014990 6.294378 -4.830095 8.844953 25.022671 2.846448 0.000000 0.000000 0.000000 
-0.095804 0.942349 0.382888 -6.533843 -22.621688 -0.137807 7.041599 0.220897 -7.930850 -4.834917 1.061665 6.416729 13.877408 24.185775 16.126028 0.000000 0.000000 0.000000 -2.889279 0.668076 -6.679203 12.952188 -0.773748 26.928728 -10.225876 -24.414630 15.994762 0.000000 0.000000 0.000000 -1.485994 0.027248 15.846952 -9.026519 2.461508 -22.118079 -1.018813 10.636446 25.747295 2.579603 -1.411020 -10.015848 0.000000 0.000000 0.000000 -18.247967 -5.972885 3.030524 -38.001403 -12.949794 -2.887702 3.139309 -24.137086 0.543080 0.000000 0.000000 0.000000 23.603862 -0.787147 -2.910785 56.178137 6.567562 -4.674180 7.782854 25.590549 2.669269 0.000000 0.000000 0.000000 
-0.097013 0.945101 0.394033 -6.700412 -22.315879 0.690540 6.530675 0.139276 -6.946395 -4.033550 0.783707 4.374437 13.765028 24.023949 16.338942 0.000000 0.000000 0.000000 -2.767523 0.703817 -7.061311 9.623103 -0.303664 20.466623 -7.501569 -18.531404 5.190660 0.000000 0.000000 0.000000 -1.288459 -0.004995 15.856021 -8.656355 2.356247 -22.192769 -0.457742 10.364115 26.153161 1.973330 -0.841122 -11.756359 0.000000 0.000000 0.000000 -18.535867 -4.833865 2.487274 -38.817964 -13.404358 -2.827593 2.966031 -25.951648 0.688327 0.000000 0.000000 0.000000 23.536356 -0.704797 -2.916567 55.889434 6.317456 -4.770506 7.493548 25.926402 2.637709 0.000000 0.000000 0.000000 
-0.099039 0.946853 0.402703 -6.600676 -21.871970 1.132460 5.842014 0.058940 -5.833737 -3.173411 0.548185 2.376673 13.547452 23.740355 16.472038 0.000000 0.000000 0.000000 -2.531937 0.714856 -7.198793 7.114102 -0.135659 14.521369 -2.819207 -9.299195 4.570383 0.000000 0.000000 0.000000 -1.109510 0.000935 17.115654 -8.492630 2.267139 -23.483174 -0.531418 10.348921 26.278559 3.313636 -1.813051 -12.083631 0.000000 0.000000 0.000000 -17.814568 -4.838011 2.417801 -39.641917 -13.140098 -2.937219 2.881583 -26.731817 0.743197 0.000000 0.000000 0.000000 24.824632 -0.621360 -2.946367 55.258707 5.713427 -5.016556 6.524029 26.840462 2.550949 0.000000 0.000000 0.000000 
-0.101518 0.947538 0.408705 -6.144812 -20.300960 1.349721 5.319934 -0.013102 -5.213711 -3.025040 0.482041 0.824451 12.658674 22.623557 16.042574 0.000000 0.000000 0.000000 -2.183144 0.758050 -7.697570 6.063194 -0.173860 10.909739 -0.087881 -6.215951 9.034209 0.000000 0.000000 0.000000 -0.629212 -0.105421 17.574601 -8.500960 2.308168 -23.004694 -0.559074 10.198242 25.358285 4.265377 -2.466939 -11.710594 0.000000 0.000000 0.000000 -17.559427 -5.915460 2.728219 -40.761195 -12.440846 -3.022925 2.094034 -27.861184 0.916438 0.000000 0.000000 0.000000 26.432597 -0.656529 -2.903723 54.386418 5.340893 -5.055490 5.282038 27.282077 2.357211 0.000000 0.000000 0.000000 
-0.104095 0.947672 0.412474 -5.100961 -18.211887 1.417443 4.274903 -0.144666 -5.291132 -2.913973 0.441502 0.085551 11.529824 21.144973 15.567402 0.000000 0.000000 0.000000 -2.144616 0.776775 -7.940607 5.267159 -0.178217 9.157643 -0.457927 -8.465835 12.673244 0.000000 0.000000 0.000000 -0.755969 -0.118548 18.095198 -8.536420 2.370098 -22.726511 -0.464559 9.556301 25.304550 5.242043 -3.376474 -9.983125 0.000000 0.000000 0.000000 -17.121512 -6.997747 3.114483 -41.844853 -12.557578 -2.946237 1.954297 -27.989480 0.915836 0.000000 0.000000 0.000000 28.008228 -0.495258 -2.745701 53.100905 5.471159 -4.936161 4.601164 26.908407 2.199976 0.000000 0.000000 0.000000 
